<svg width="724" height="256" viewBox="0 0 724 256" fill="none" xmlns="http://www.w3.org/2000/svg">
<path d="M185.46 39.9533L68.6367 88.2991C49.9049 95.817 45.2857 102.45 43.4084 107.945C41.6747 113.02 37.0894 122.447 64.1983 128.632C89.5384 134.412 117.207 137.832 117.207 137.832C117.207 137.832 129.479 140.153 134.585 135.207C140.696 129.285 198.873 44.109 198.873 44.109C202.489 38.4537 201.388 33.7122 185.46 39.9533Z" fill="#F69DDC"/>
<path d="M216.561 58.9187L212.388 185.282C211.938 205.461 207.353 212.118 202.869 215.808C198.728 219.215 190.276 224.946 176.193 203.621C161.87 181.932 148.938 157.234 148.938 157.234C148.938 157.234 142.449 146.562 145.284 140.043C148.678 132.24 207.954 47.824 207.954 47.824C211.977 42.4506 216.802 41.8131 216.561 58.9187Z" fill="#C890D6"/>
<path d="M283.08 156.152C280.776 156.152 279.069 155.811 277.96 155.128C276.936 154.445 276.296 153.507 276.04 152.312C275.784 151.117 275.656 149.837 275.656 148.472V100.6C275.656 99.2347 275.784 97.9973 276.04 96.888C276.296 95.7787 276.979 94.8827 278.088 94.2C279.197 93.5173 280.947 93.176 283.336 93.176C285.811 93.176 287.603 93.688 288.712 94.712C289.907 95.736 290.504 97.3573 290.504 99.576L289.352 103.16C289.779 102.221 290.504 101.197 291.528 100.088C292.552 98.9787 293.789 97.8693 295.24 96.76C296.776 95.6507 298.483 94.7547 300.36 94.072C302.237 93.3893 304.2 93.048 306.248 93.048C309.064 93.048 311.624 93.5173 313.928 94.456C316.317 95.3947 318.408 96.76 320.2 98.552C322.077 100.344 323.699 102.52 325.064 105.08C326.515 102.861 328.136 100.856 329.928 99.064C331.72 97.1867 333.811 95.736 336.2 94.712C338.589 93.6027 341.277 93.048 344.264 93.048C349.213 93.048 353.352 94.2853 356.68 96.76C360.093 99.2347 362.653 102.776 364.36 107.384C366.152 111.907 367.048 117.325 367.048 123.64V148.472C367.048 149.923 366.877 151.245 366.536 152.44C366.28 153.549 365.597 154.445 364.488 155.128C363.464 155.811 361.757 156.152 359.368 156.152C356.979 156.152 355.229 155.768 354.12 155C353.011 154.317 352.328 153.421 352.072 152.312C351.816 151.117 351.688 149.795 351.688 148.344V123.512C351.688 120.355 351.304 117.624 350.536 115.32C349.768 113.016 348.616 111.224 347.08 109.944C345.629 108.664 343.709 108.024 341.32 108.024C338.76 108.024 336.541 108.664 334.664 109.944C332.872 111.139 331.464 112.888 330.44 115.192C329.416 117.496 328.904 120.312 328.904 123.64V148.6C328.904 150.051 328.691 151.416 328.264 152.696C327.837 153.891 326.984 154.787 325.704 155.384C324.509 156.067 322.76 156.323 320.456 156.152C318.323 156.067 316.744 155.64 315.72 154.872C314.781 154.104 314.184 153.165 313.928 152.056C313.757 150.861 313.672 149.624 313.672 148.344V123.512C313.672 120.355 313.288 117.624 312.52 115.32C311.752 112.931 310.6 111.139 309.064 109.944C307.613 108.664 305.651 108.024 303.176 108.024C300.531 108.024 298.269 108.707 296.392 110.072C294.6 111.437 293.235 113.272 292.296 115.576C291.357 117.88 290.888 120.525 290.888 123.512V148.6C290.888 149.965 290.717 151.245 290.376 152.44C290.12 153.635 289.437 154.531 288.328 155.128C287.304 155.811 285.555 156.152 283.08 156.152ZM409.76 156.28C405.579 156.28 401.995 155.853 399.008 155C396.021 154.147 393.589 152.824 391.712 151.032C389.835 149.24 388.427 146.936 387.488 144.12C386.635 141.219 386.208 137.805 386.208 133.88V79.608C386.208 78.072 386.336 76.7493 386.592 75.64C386.933 74.5307 387.616 73.6773 388.64 73.08C389.749 72.3973 391.456 72.056 393.76 72.056C396.149 72.056 397.856 72.3973 398.88 73.08C399.989 73.7627 400.672 74.7013 400.928 75.896C401.269 77.0053 401.44 78.2427 401.44 79.608V133.368C401.44 135.16 401.568 136.611 401.824 137.72C402.165 138.829 402.635 139.683 403.232 140.28C403.915 140.792 404.768 141.176 405.792 141.432C406.901 141.603 408.224 141.688 409.76 141.688C411.381 141.688 412.747 141.816 413.856 142.072C415.051 142.328 415.947 142.968 416.544 143.992C417.141 144.931 417.44 146.509 417.44 148.728C417.44 151.117 417.056 152.867 416.288 153.976C415.605 155 414.667 155.64 413.472 155.896C412.363 156.152 411.125 156.28 409.76 156.28ZM380.96 94.456L394.144 94.584L411.808 94.072C413.259 94.072 414.539 94.2427 415.648 94.584C416.843 94.84 417.781 95.5227 418.464 96.632C419.147 97.656 419.488 99.3627 419.488 101.752C419.488 103.971 419.147 105.635 418.464 106.744C417.781 107.853 416.885 108.579 415.776 108.92C414.667 109.176 413.387 109.304 411.936 109.304L394.784 109.048L380.576 109.176C378.443 109.091 376.949 108.493 376.096 107.384C375.328 106.189 374.944 104.269 374.944 101.624C374.944 99.1493 375.413 97.3573 376.352 96.248C377.376 95.0533 378.912 94.456 380.96 94.456ZM456.995 156.536C452.899 156.536 448.888 155.853 444.963 154.488C441.123 153.037 437.624 150.947 434.467 148.216C431.395 145.485 428.92 142.157 427.043 138.232C425.251 134.221 424.355 129.699 424.355 124.664C424.355 119.629 425.251 115.149 427.043 111.224C428.92 107.299 431.395 103.971 434.467 101.24C437.539 98.5093 440.995 96.4187 444.835 94.968C448.675 93.5173 452.643 92.792 456.739 92.792C459.726 92.792 462.542 93.2187 465.187 94.072C467.918 94.9253 470.264 95.9493 472.227 97.144C474.19 98.3387 475.598 99.5333 476.451 100.728C477.56 101.752 478.499 102.733 479.267 103.672C480.035 104.611 480.291 105.763 480.035 107.128C479.779 107.981 479.395 108.792 478.883 109.56C478.371 110.243 477.731 110.968 476.963 111.736C474.915 114.04 472.91 114.893 470.947 114.296C469.838 113.699 468.728 113.059 467.619 112.376C466.51 111.693 465.358 111.053 464.163 110.456C463.054 109.773 461.902 109.219 460.707 108.792C459.512 108.365 458.19 108.152 456.739 108.152C453.496 108.152 450.595 108.877 448.035 110.328C445.56 111.693 443.598 113.613 442.147 116.088C440.782 118.563 440.099 121.421 440.099 124.664C440.099 127.907 440.782 130.808 442.147 133.368C443.598 135.843 445.56 137.805 448.035 139.256C450.51 140.621 453.326 141.304 456.483 141.304C458.019 141.304 459.47 141.133 460.835 140.792C462.286 140.365 463.566 139.853 464.675 139.256C465.784 138.573 466.68 137.891 467.363 137.208C468.302 136.611 469.155 136.056 469.923 135.544C470.691 135.032 471.502 134.776 472.355 134.776C473.379 134.776 474.36 135.16 475.299 135.928C476.323 136.611 477.432 137.72 478.627 139.256C479.736 140.536 480.334 141.773 480.419 142.968C480.59 144.163 480.334 145.315 479.651 146.424C479.054 147.533 478.03 148.557 476.579 149.496C475.555 150.52 474.019 151.587 471.971 152.696C470.008 153.72 467.704 154.616 465.059 155.384C462.499 156.152 459.811 156.536 456.995 156.536ZM517.518 156.152C513.593 156.152 509.966 155.469 506.638 154.104C503.395 152.653 500.537 150.605 498.062 147.96C495.587 145.315 493.667 142.157 492.302 138.488C490.937 134.819 490.254 130.765 490.254 126.328V100.856C490.254 99.4053 490.382 98.1253 490.638 97.016C490.894 95.8213 491.577 94.8827 492.686 94.2C493.795 93.5173 495.502 93.176 497.806 93.176C500.281 93.176 502.03 93.5173 503.054 94.2C504.163 94.8827 504.846 95.8213 505.102 97.016C505.358 98.2107 505.486 99.5333 505.486 100.984V126.328C505.486 129.4 505.998 132.045 507.022 134.264C508.131 136.483 509.71 138.232 511.758 139.512C513.806 140.707 516.323 141.304 519.31 141.304C522.382 141.304 524.985 140.707 527.118 139.512C529.337 138.232 531.043 136.483 532.238 134.264C533.433 131.96 534.03 129.315 534.03 126.328V100.728C534.03 99.2773 534.158 97.9973 534.414 96.888C534.67 95.6933 535.353 94.7973 536.462 94.2C537.571 93.5173 539.321 93.176 541.71 93.176C544.099 93.176 545.806 93.5173 546.83 94.2C547.854 94.8827 548.494 95.8213 548.75 97.016C549.091 98.2107 549.262 99.4907 549.262 100.856V148.856C549.262 150.136 549.091 151.331 548.75 152.44C548.494 153.549 547.811 154.445 546.702 155.128C545.678 155.811 543.971 156.152 541.582 156.152C539.875 156.152 538.51 155.939 537.486 155.512C536.547 155.171 535.822 154.701 535.31 154.104C534.883 153.421 534.585 152.739 534.414 152.056C534.329 151.373 534.286 150.691 534.286 150.008L535.31 146.552C534.798 147.32 534.03 148.259 533.006 149.368C531.982 150.392 530.702 151.459 529.166 152.568C527.715 153.592 526.009 154.445 524.046 155.128C522.083 155.811 519.907 156.152 517.518 156.152ZM593.01 156.28C588.829 156.28 585.245 155.853 582.258 155C579.271 154.147 576.839 152.824 574.962 151.032C573.085 149.24 571.677 146.936 570.738 144.12C569.885 141.219 569.458 137.805 569.458 133.88V79.608C569.458 78.072 569.586 76.7493 569.842 75.64C570.183 74.5307 570.866 73.6773 571.89 73.08C572.999 72.3973 574.706 72.056 577.01 72.056C579.399 72.056 581.106 72.3973 582.13 73.08C583.239 73.7627 583.922 74.7013 584.178 75.896C584.519 77.0053 584.69 78.2427 584.69 79.608V133.368C584.69 135.16 584.818 136.611 585.074 137.72C585.415 138.829 585.885 139.683 586.482 140.28C587.165 140.792 588.018 141.176 589.042 141.432C590.151 141.603 591.474 141.688 593.01 141.688C594.631 141.688 595.997 141.816 597.106 142.072C598.301 142.328 599.197 142.968 599.794 143.992C600.391 144.931 600.69 146.509 600.69 148.728C600.69 151.117 600.306 152.867 599.538 153.976C598.855 155 597.917 155.64 596.722 155.896C595.613 156.152 594.375 156.28 593.01 156.28ZM564.21 94.456L577.394 94.584L595.058 94.072C596.509 94.072 597.789 94.2427 598.898 94.584C600.093 94.84 601.031 95.5227 601.714 96.632C602.397 97.656 602.738 99.3627 602.738 101.752C602.738 103.971 602.397 105.635 601.714 106.744C601.031 107.853 600.135 108.579 599.026 108.92C597.917 109.176 596.637 109.304 595.186 109.304L578.034 109.048L563.826 109.176C561.693 109.091 560.199 108.493 559.346 107.384C558.578 106.189 558.194 104.269 558.194 101.624C558.194 99.1493 558.663 97.3573 559.602 96.248C560.626 95.0533 562.162 94.456 564.21 94.456ZM642.745 157.048C637.198 157.048 632.334 156.152 628.153 154.36C624.057 152.568 620.601 150.136 617.785 147.064C615.054 143.907 612.964 140.408 611.513 136.568C610.148 132.643 609.465 128.589 609.465 124.408C609.465 118.264 610.873 112.803 613.689 108.024C616.505 103.245 620.388 99.4907 625.337 96.76C630.372 94.0293 636.132 92.664 642.617 92.664C647.225 92.664 651.278 93.3893 654.777 94.84C658.276 96.2907 661.177 98.2107 663.481 100.6C665.87 102.904 667.662 105.464 668.857 108.28C670.137 111.096 670.777 113.827 670.777 116.472C670.777 120.995 669.668 124.28 667.449 126.328C665.316 128.376 662.628 129.4 659.385 129.4H625.593C625.678 132.301 626.574 134.819 628.281 136.952C630.073 139.085 632.292 140.749 634.937 141.944C637.668 143.053 640.441 143.608 643.257 143.608C645.39 143.608 647.268 143.48 648.889 143.224C650.596 142.968 652.046 142.669 653.241 142.328C654.436 141.901 655.46 141.475 656.313 141.048C657.252 140.621 658.105 140.237 658.873 139.896C659.641 139.555 660.366 139.341 661.049 139.256C661.988 139.171 662.926 139.384 663.865 139.896C664.804 140.408 665.572 141.304 666.169 142.584C666.681 143.437 667.022 144.248 667.193 145.016C667.449 145.699 667.577 146.381 667.577 147.064C667.577 148.771 666.553 150.392 664.505 151.928C662.457 153.379 659.556 154.573 655.801 155.512C652.132 156.536 647.78 157.048 642.745 157.048ZM625.593 120.312H651.833C653.284 120.312 654.393 120.099 655.161 119.672C655.929 119.16 656.313 118.136 656.313 116.6C656.313 114.637 655.716 112.888 654.521 111.352C653.326 109.731 651.705 108.493 649.657 107.64C647.609 106.701 645.22 106.232 642.489 106.232C639.332 106.232 636.473 106.872 633.913 108.152C631.353 109.347 629.305 111.011 627.769 113.144C626.318 115.277 625.593 117.667 625.593 120.312Z" fill="url(#paint0_linear_1192_12)"/>
<defs>
<linearGradient id="paint0_linear_1192_12" x1="472" y1="108" x2="675" y2="172" gradientUnits="userSpaceOnUse">
<stop stop-color="#F69DDC"/>
<stop offset="1" stop-color="#C890D6"/>
</linearGradient>
</defs>
</svg>