<svg xmlns="http://www.w3.org/2000/svg" width="400" height="363" viewBox="0 0 400 363">
  <defs/>
  <path fill="#DE6FBE" d="M299.961,8.049 C328.659,24.617 338.492,61.312 321.923,90.01 L304.003,121.049 L340,121.049 C373.137,121.049 400,147.911 400,181.048 C400,214.186 373.137,241.048 340,241.048 L303.766,241.048 L321.923,272.497 C338.492,301.195 328.659,337.89 299.961,354.459 C271.264,371.027 234.568,361.195 218,332.497 L78,90.01 C61.431,61.312 71.264,24.617 99.961,8.049 C128.659,-8.52 165.354,1.312 181.923,30.01 L199.961,61.254 L218,30.01 C234.568,1.312 271.264,-8.52 299.961,8.049 Z"/>
  <path fill="#F69DDC" d="M252.093,210.96 C268.661,182.262 258.829,145.567 230.131,128.998 C219.617,122.928 208.028,120.401 196.75,121.048 L60,121.048 C26.863,121.048 0,147.911 0,181.049 C0,214.186 26.863,241.049 60,241.049 L96.157,241.049 L78.169,272.204 C61.601,300.901 71.433,337.596 100.131,354.165 C128.829,370.734 165.524,360.901 182.093,332.204 L252.093,210.96 Z"/>
</svg>
