<svg width="724" height="256" viewBox="0 0 724 256" fill="none" xmlns="http://www.w3.org/2000/svg">
<path d="M281.08 152.152C278.776 152.152 277.069 151.811 275.96 151.128C274.936 150.445 274.296 149.507 274.04 148.312C273.784 147.117 273.656 145.837 273.656 144.472V96.6C273.656 95.2347 273.784 93.9973 274.04 92.888C274.296 91.7787 274.979 90.8827 276.088 90.2C277.197 89.5173 278.947 89.176 281.336 89.176C283.811 89.176 285.603 89.688 286.712 90.712C287.907 91.736 288.504 93.3573 288.504 95.576L287.352 99.16C287.779 98.2213 288.504 97.1973 289.528 96.088C290.552 94.9787 291.789 93.8693 293.24 92.76C294.776 91.6507 296.483 90.7547 298.36 90.072C300.237 89.3893 302.2 89.048 304.248 89.048C307.064 89.048 309.624 89.5173 311.928 90.456C314.317 91.3947 316.408 92.76 318.2 94.552C320.077 96.344 321.699 98.52 323.064 101.08C324.515 98.8613 326.136 96.856 327.928 95.064C329.72 93.1867 331.811 91.736 334.2 90.712C336.589 89.6027 339.277 89.048 342.264 89.048C347.213 89.048 351.352 90.2853 354.68 92.76C358.093 95.2347 360.653 98.776 362.36 103.384C364.152 107.907 365.048 113.325 365.048 119.64V144.472C365.048 145.923 364.877 147.245 364.536 148.44C364.28 149.549 363.597 150.445 362.488 151.128C361.464 151.811 359.757 152.152 357.368 152.152C354.979 152.152 353.229 151.768 352.12 151C351.011 150.317 350.328 149.421 350.072 148.312C349.816 147.117 349.688 145.795 349.688 144.344V119.512C349.688 116.355 349.304 113.624 348.536 111.32C347.768 109.016 346.616 107.224 345.08 105.944C343.629 104.664 341.709 104.024 339.32 104.024C336.76 104.024 334.541 104.664 332.664 105.944C330.872 107.139 329.464 108.888 328.44 111.192C327.416 113.496 326.904 116.312 326.904 119.64V144.6C326.904 146.051 326.691 147.416 326.264 148.696C325.837 149.891 324.984 150.787 323.704 151.384C322.509 152.067 320.76 152.323 318.456 152.152C316.323 152.067 314.744 151.64 313.72 150.872C312.781 150.104 312.184 149.165 311.928 148.056C311.757 146.861 311.672 145.624 311.672 144.344V119.512C311.672 116.355 311.288 113.624 310.52 111.32C309.752 108.931 308.6 107.139 307.064 105.944C305.613 104.664 303.651 104.024 301.176 104.024C298.531 104.024 296.269 104.707 294.392 106.072C292.6 107.437 291.235 109.272 290.296 111.576C289.357 113.88 288.888 116.525 288.888 119.512V144.6C288.888 145.965 288.717 147.245 288.376 148.44C288.12 149.635 287.437 150.531 286.328 151.128C285.304 151.811 283.555 152.152 281.08 152.152ZM407.76 152.28C403.579 152.28 399.995 151.853 397.008 151C394.021 150.147 391.589 148.824 389.712 147.032C387.835 145.24 386.427 142.936 385.488 140.12C384.635 137.219 384.208 133.805 384.208 129.88V75.608C384.208 74.072 384.336 72.7493 384.592 71.64C384.933 70.5307 385.616 69.6773 386.64 69.08C387.749 68.3973 389.456 68.056 391.76 68.056C394.149 68.056 395.856 68.3973 396.88 69.08C397.989 69.7627 398.672 70.7013 398.928 71.896C399.269 73.0053 399.44 74.2427 399.44 75.608V129.368C399.44 131.16 399.568 132.611 399.824 133.72C400.165 134.829 400.635 135.683 401.232 136.28C401.915 136.792 402.768 137.176 403.792 137.432C404.901 137.603 406.224 137.688 407.76 137.688C409.381 137.688 410.747 137.816 411.856 138.072C413.051 138.328 413.947 138.968 414.544 139.992C415.141 140.931 415.44 142.509 415.44 144.728C415.44 147.117 415.056 148.867 414.288 149.976C413.605 151 412.667 151.64 411.472 151.896C410.363 152.152 409.125 152.28 407.76 152.28ZM378.96 90.456L392.144 90.584L409.808 90.072C411.259 90.072 412.539 90.2427 413.648 90.584C414.843 90.84 415.781 91.5227 416.464 92.632C417.147 93.656 417.488 95.3627 417.488 97.752C417.488 99.9707 417.147 101.635 416.464 102.744C415.781 103.853 414.885 104.579 413.776 104.92C412.667 105.176 411.387 105.304 409.936 105.304L392.784 105.048L378.576 105.176C376.443 105.091 374.949 104.493 374.096 103.384C373.328 102.189 372.944 100.269 372.944 97.624C372.944 95.1493 373.413 93.3573 374.352 92.248C375.376 91.0533 376.912 90.456 378.96 90.456ZM454.995 152.536C450.899 152.536 446.888 151.853 442.963 150.488C439.123 149.037 435.624 146.947 432.467 144.216C429.395 141.485 426.92 138.157 425.043 134.232C423.251 130.221 422.355 125.699 422.355 120.664C422.355 115.629 423.251 111.149 425.043 107.224C426.92 103.299 429.395 99.9707 432.467 97.24C435.539 94.5093 438.995 92.4187 442.835 90.968C446.675 89.5173 450.643 88.792 454.739 88.792C457.726 88.792 460.542 89.2187 463.187 90.072C465.918 90.9253 468.264 91.9493 470.227 93.144C472.19 94.3387 473.598 95.5333 474.451 96.728C475.56 97.752 476.499 98.7333 477.267 99.672C478.035 100.611 478.291 101.763 478.035 103.128C477.779 103.981 477.395 104.792 476.883 105.56C476.371 106.243 475.731 106.968 474.963 107.736C472.915 110.04 470.91 110.893 468.947 110.296C467.838 109.699 466.728 109.059 465.619 108.376C464.51 107.693 463.358 107.053 462.163 106.456C461.054 105.773 459.902 105.219 458.707 104.792C457.512 104.365 456.19 104.152 454.739 104.152C451.496 104.152 448.595 104.877 446.035 106.328C443.56 107.693 441.598 109.613 440.147 112.088C438.782 114.563 438.099 117.421 438.099 120.664C438.099 123.907 438.782 126.808 440.147 129.368C441.598 131.843 443.56 133.805 446.035 135.256C448.51 136.621 451.326 137.304 454.483 137.304C456.019 137.304 457.47 137.133 458.835 136.792C460.286 136.365 461.566 135.853 462.675 135.256C463.784 134.573 464.68 133.891 465.363 133.208C466.302 132.611 467.155 132.056 467.923 131.544C468.691 131.032 469.502 130.776 470.355 130.776C471.379 130.776 472.36 131.16 473.299 131.928C474.323 132.611 475.432 133.72 476.627 135.256C477.736 136.536 478.334 137.773 478.419 138.968C478.59 140.163 478.334 141.315 477.651 142.424C477.054 143.533 476.03 144.557 474.579 145.496C473.555 146.52 472.019 147.587 469.971 148.696C468.008 149.72 465.704 150.616 463.059 151.384C460.499 152.152 457.811 152.536 454.995 152.536ZM515.518 152.152C511.593 152.152 507.966 151.469 504.638 150.104C501.395 148.653 498.537 146.605 496.062 143.96C493.587 141.315 491.667 138.157 490.302 134.488C488.937 130.819 488.254 126.765 488.254 122.328V96.856C488.254 95.4053 488.382 94.1253 488.638 93.016C488.894 91.8213 489.577 90.8827 490.686 90.2C491.795 89.5173 493.502 89.176 495.806 89.176C498.281 89.176 500.03 89.5173 501.054 90.2C502.163 90.8827 502.846 91.8213 503.102 93.016C503.358 94.2107 503.486 95.5333 503.486 96.984V122.328C503.486 125.4 503.998 128.045 505.022 130.264C506.131 132.483 507.71 134.232 509.758 135.512C511.806 136.707 514.323 137.304 517.31 137.304C520.382 137.304 522.985 136.707 525.118 135.512C527.337 134.232 529.043 132.483 530.238 130.264C531.433 127.96 532.03 125.315 532.03 122.328V96.728C532.03 95.2773 532.158 93.9973 532.414 92.888C532.67 91.6933 533.353 90.7973 534.462 90.2C535.571 89.5173 537.321 89.176 539.71 89.176C542.099 89.176 543.806 89.5173 544.83 90.2C545.854 90.8827 546.494 91.8213 546.75 93.016C547.091 94.2107 547.262 95.4907 547.262 96.856V144.856C547.262 146.136 547.091 147.331 546.75 148.44C546.494 149.549 545.811 150.445 544.702 151.128C543.678 151.811 541.971 152.152 539.582 152.152C537.875 152.152 536.51 151.939 535.486 151.512C534.547 151.171 533.822 150.701 533.31 150.104C532.883 149.421 532.585 148.739 532.414 148.056C532.329 147.373 532.286 146.691 532.286 146.008L533.31 142.552C532.798 143.32 532.03 144.259 531.006 145.368C529.982 146.392 528.702 147.459 527.166 148.568C525.715 149.592 524.009 150.445 522.046 151.128C520.083 151.811 517.907 152.152 515.518 152.152ZM591.01 152.28C586.829 152.28 583.245 151.853 580.258 151C577.271 150.147 574.839 148.824 572.962 147.032C571.085 145.24 569.677 142.936 568.738 140.12C567.885 137.219 567.458 133.805 567.458 129.88V75.608C567.458 74.072 567.586 72.7493 567.842 71.64C568.183 70.5307 568.866 69.6773 569.89 69.08C570.999 68.3973 572.706 68.056 575.01 68.056C577.399 68.056 579.106 68.3973 580.13 69.08C581.239 69.7627 581.922 70.7013 582.178 71.896C582.519 73.0053 582.69 74.2427 582.69 75.608V129.368C582.69 131.16 582.818 132.611 583.074 133.72C583.415 134.829 583.885 135.683 584.482 136.28C585.165 136.792 586.018 137.176 587.042 137.432C588.151 137.603 589.474 137.688 591.01 137.688C592.631 137.688 593.997 137.816 595.106 138.072C596.301 138.328 597.197 138.968 597.794 139.992C598.391 140.931 598.69 142.509 598.69 144.728C598.69 147.117 598.306 148.867 597.538 149.976C596.855 151 595.917 151.64 594.722 151.896C593.613 152.152 592.375 152.28 591.01 152.28ZM562.21 90.456L575.394 90.584L593.058 90.072C594.509 90.072 595.789 90.2427 596.898 90.584C598.093 90.84 599.031 91.5227 599.714 92.632C600.397 93.656 600.738 95.3627 600.738 97.752C600.738 99.9707 600.397 101.635 599.714 102.744C599.031 103.853 598.135 104.579 597.026 104.92C595.917 105.176 594.637 105.304 593.186 105.304L576.034 105.048L561.826 105.176C559.693 105.091 558.199 104.493 557.346 103.384C556.578 102.189 556.194 100.269 556.194 97.624C556.194 95.1493 556.663 93.3573 557.602 92.248C558.626 91.0533 560.162 90.456 562.21 90.456ZM640.745 153.048C635.198 153.048 630.334 152.152 626.153 150.36C622.057 148.568 618.601 146.136 615.785 143.064C613.054 139.907 610.964 136.408 609.513 132.568C608.148 128.643 607.465 124.589 607.465 120.408C607.465 114.264 608.873 108.803 611.689 104.024C614.505 99.2453 618.388 95.4907 623.337 92.76C628.372 90.0293 634.132 88.664 640.617 88.664C645.225 88.664 649.278 89.3893 652.777 90.84C656.276 92.2907 659.177 94.2107 661.481 96.6C663.87 98.904 665.662 101.464 666.857 104.28C668.137 107.096 668.777 109.827 668.777 112.472C668.777 116.995 667.668 120.28 665.449 122.328C663.316 124.376 660.628 125.4 657.385 125.4H623.593C623.678 128.301 624.574 130.819 626.281 132.952C628.073 135.085 630.292 136.749 632.937 137.944C635.668 139.053 638.441 139.608 641.257 139.608C643.39 139.608 645.268 139.48 646.889 139.224C648.596 138.968 650.046 138.669 651.241 138.328C652.436 137.901 653.46 137.475 654.313 137.048C655.252 136.621 656.105 136.237 656.873 135.896C657.641 135.555 658.366 135.341 659.049 135.256C659.988 135.171 660.926 135.384 661.865 135.896C662.804 136.408 663.572 137.304 664.169 138.584C664.681 139.437 665.022 140.248 665.193 141.016C665.449 141.699 665.577 142.381 665.577 143.064C665.577 144.771 664.553 146.392 662.505 147.928C660.457 149.379 657.556 150.573 653.801 151.512C650.132 152.536 645.78 153.048 640.745 153.048ZM623.593 116.312H649.833C651.284 116.312 652.393 116.099 653.161 115.672C653.929 115.16 654.313 114.136 654.313 112.6C654.313 110.637 653.716 108.888 652.521 107.352C651.326 105.731 649.705 104.493 647.657 103.64C645.609 102.701 643.22 102.232 640.489 102.232C637.332 102.232 634.473 102.872 631.913 104.152C629.353 105.347 627.305 107.011 625.769 109.144C624.318 111.277 623.593 113.667 623.593 116.312Z" fill="url(#paint0_linear_1192_12)"/>
<path d="M182.984 54.2196C194.464 60.8468 198.397 75.5248 191.769 87.004L184.601 99.4196H199C212.255 99.4196 223 110.164 223 123.419C223 136.674 212.255 147.419 199 147.419H184.506L191.769 159.999C198.397 171.478 194.464 186.156 182.984 192.784C171.506 199.411 156.827 195.478 150.2 183.999L94.2 87.004C87.5724 75.5248 91.5056 60.8468 102.984 54.2196C114.464 47.592 129.142 51.5248 135.769 63.004L142.984 75.5016L150.2 63.004C156.827 51.5248 171.506 47.592 182.984 54.2196Z" fill="#DE6FBE"/>
<path d="M163.837 135.384C170.464 123.905 166.532 109.227 155.052 102.599C150.847 100.171 146.211 99.1604 141.7 99.4192H87C73.7452 99.4192 63 110.164 63 123.42C63 136.674 73.7452 147.42 87 147.42H101.463L94.2676 159.882C87.6404 171.36 91.5732 186.038 103.052 192.666C114.532 199.294 129.21 195.36 135.837 183.882L163.837 135.384Z" fill="#F69DDC"/>
<defs>
<linearGradient id="paint0_linear_1192_12" x1="470" y1="104" x2="673" y2="168" gradientUnits="userSpaceOnUse">
<stop stop-color="#E9A1D9"/>
<stop offset="1" stop-color="#D075BB"/>
</linearGradient>
</defs>
</svg>
